# xmcd
#
# Track frame offsets:
#	150
#	14540
#	25987
#	39957
#	54472
#	66525
#	75520
#	85170
#	96225
#	108447
#	119795
#	130422
#	142337
#	153290
#	163232
#	174912
#	188165
#	199097
#	214270
#	225222
#	236795
#	245185
#	259534
#	272855
#	285835
#
# Disc length: 3983 seconds
#
# Revision: 0
# Processed by: cddbd v1.5PL3 Copyright (c) Steve Scherf et al.
# Submitted via: audiograbber 1.82.02
#
DISCID=6b0f8d19
DTITLE=Frankie Laine - The Original Recordings
DYEAR=1996
DGENRE=Country
TTITLE0=Jezebel
TTITLE1=Rose Rose I Love You
TTITLE2=The Girl In The Wood
TTITLE3=Jealousy
TTITLE4=High Noon
TTITLE5=Sugarbush (With Doris Day)
TTITLE6=I Believe
TTITLE7=Your Cheatain' Heart
TTITLE8=The Rock Of Gibraltar
TTITLE9=Where The Wind Blows
TTITLE10=Hey Joe
TTITLE11=Answer Me
TTITLE12=There's A Rainbow
TTITLE13=Tell Me A Story (Wiht Jimmy Boyd)
TTITLE14=Blowing Wild
TTITLE15=Granada
TTITLE16=The Gandy Dancer's Ball
TTITLE17=The Kid's Last Fight
TTITLE18=My Friend
TTITLE19=The Ruby And The Pearl
TTITLE20=Settin' The Woods On Fire (With Jo Safford)
TTITLE21=There Must Be A Reason
TTITLE22=The Mermaid
TTITLE23=When You 'Re In Love
TTITLE24=Rain Rain Rain
EXTD=
EXTT0=
EXTT1=
EXTT2=
EXTT3=
EXTT4=
EXTT5=
EXTT6=
EXTT7=
EXTT8=
EXTT9=
EXTT10=
EXTT11=
EXTT12=
EXTT13=
EXTT14=
EXTT15=
EXTT16=
EXTT17=
EXTT18=
EXTT19=
EXTT20=
EXTT21=
EXTT22=
EXTT23=
EXTT24=
PLAYORDER=
